<?xml version="1.0" encoding="utf-8"?>
<!-- Generator: Adobe Illustrator 16.0.0, SVG Export Plug-In . SVG Version: 6.00 Build 0)  -->
<!DOCTYPE svg PUBLIC "-//W3C//DTD SVG 1.1//EN" "http://www.w3.org/Graphics/SVG/1.1/DTD/svg11.dtd">
<svg version="1.1" id="Calque_1" xmlns="http://www.w3.org/2000/svg" xmlns:xlink="http://www.w3.org/1999/xlink" x="0px" y="0px"
	 width="120px" height="120px" viewBox="-20 -30.25 120 120" enable-background="new -20 -30.25 120 120" xml:space="preserve">
<g>
	<path fill="#010202" d="M37.089,33.2c2.157,3.79,3.552,8.349,3.552,12.624c0,7.444-3.226,13.944-8.543,18.004v1.011h4.509
		c5.051-4.66,8.061-11.57,8.061-18.526c0-4.377-1.148-8.768-3.32-12.699l-0.302-0.545c-0.914-1.665-3.342-6.084-3.905-7.03
		c-2.337-3.933-3.572-8.674-3.572-13.708c0-8.031,3.226-15.356,8.628-19.594l0.138-0.108h4.697v-0.574l-4.406-4.83
		c-6.64,5.294-12.296,13.956-12.759,24.983c-0.261,6.145,1.986,11.636,4.522,16.311L37.089,33.2z"/>
	<path fill="#010202" d="M45.597,32.09c-0.963-1.72-4.488-9.029-5.054-10.106c-1.521-2.897-2.316-6.272-2.316-9.839
		c0-6.949,3.759-13.685,8.807-17.567v-0.931H42.69c-5.08,4.062-8.105,11.033-8.105,18.687c0,4.852,1.186,9.414,3.43,13.189
		c0.571,0.958,3.005,5.39,3.922,7.058l0.299,0.545c2.254,4.08,3.447,8.639,3.447,13.188c0,7.307-3.194,14.562-8.54,19.411
		l-0.145,0.134h-4.903v0.841l4.682,5.135c6.336-5.988,12.867-14.892,12.867-25.18C49.645,41.301,48.01,36.396,45.597,32.09z"/>
</g>
<g>
	<polygon fill="#010202" points="18.17,18.008 23.002,18.008 23.002,17.475 18.294,12.76 -3.057,34.088 -3.057,34.439 1.716,34.439 
			"/>
	<polygon fill="#010202" points="18.59,19.023 2.136,35.456 -3.057,35.456 -3.057,36.002 1.825,40.892 23,19.741 23.001,19.023 	"/>
</g>
<g>
	<polygon fill="#010202" points="61.916,40.296 56.723,40.296 56.723,40.841 61.604,45.729 82.782,24.582 82.782,23.863 
		78.37,23.863 	"/>
	<polygon fill="#010202" points="78.077,17.6 56.723,38.927 56.723,39.28 61.495,39.28 77.949,22.847 82.782,22.847 82.782,22.313 	
		"/>
</g>
<g>
	<g>
		<path d="M-6.218-0.395l0.085-0.125c0.477,0.187,1.089,0.151,1.401-0.306c0.287-0.424,0.217-0.958-0.218-1.254
			c-1.027-0.695-1.833,1.14-3.131,0.252c-0.71-0.48-0.734-1.239-0.279-1.912c0.155-0.223,0.357-0.417,0.541-0.614l0.766,0.39
			l-0.087,0.127c-0.426-0.201-0.824-0.102-1.096,0.294C-8.52-3.124-8.384-2.675-7.981-2.402c1.026,0.698,1.899-1.188,3.163-0.328
			c0.716,0.486,0.681,1.405,0.241,2.056c-0.196,0.285-0.465,0.54-0.761,0.714L-6.218-0.395z"/>
		<path d="M-2.188-6.201c0.262,0.088,0.817,0.306,1,0.312c0.165,0.004,0.329-0.12,0.464-0.287l0.138,0.108
			c-0.161,0.197-0.333,0.392-0.495,0.589c-0.205,0.255-0.4,0.511-0.604,0.769l-0.133-0.106l0.075-0.095
			c0.105-0.129,0.205-0.309,0.06-0.425C-1.743-5.384-1.92-5.458-2.048-5.5l-0.965-0.348l-0.984,1.227l0.272,0.403
			c0.164,0.246,0.345,0.51,0.509,0.642c0.244,0.195,0.372,0.015,0.528-0.157l0.097-0.121l0.137,0.108
			C-2.619-3.541-2.799-3.343-2.96-3.141c-0.167,0.209-0.334,0.429-0.497,0.64l-0.136-0.107c0.219-0.349,0.224-0.439,0.037-0.803
			C-3.678-3.646-3.83-3.873-3.968-4.097l-1.324-2.157c-0.083-0.138-0.222-0.36-0.378-0.488c-0.053-0.042-0.093-0.074-0.146-0.1
			c0.036-0.15,0.075-0.313,0.016-0.484l0.069-0.089L-2.188-6.201z M-4.152-4.87l0.861-1.071l-1.977-0.672l-0.007,0.007L-4.152-4.87z
			"/>
		<path d="M0.623-8.265c0.339,0.324,0.516,0.144,0.765-0.109l0.125,0.121C1.279-8.018,1.063-7.8,0.853-7.579
			C0.644-7.362,0.438-7.135,0.227-6.903L0.102-7.024c0.238-0.258,0.408-0.447,0.071-0.768L-0.997-8.9l-2.348-0.316
			C-3.673-9.265-3.689-9.23-3.984-8.969l-0.124-0.119C-4.016-9.174-3.672-9.527-3.46-9.75c0.187-0.196,0.361-0.399,0.549-0.593
			l0.125,0.117c-0.073,0.081-0.256,0.273-0.156,0.366c0.057,0.056,0.234,0.093,0.45,0.125l1.593,0.23l-0.262-1.454
			c-0.028-0.132-0.058-0.41-0.168-0.517c-0.139-0.132-0.23-0.037-0.465,0.21l-0.126-0.119c0.178-0.181,0.362-0.363,0.537-0.546
			c0.125-0.131,0.239-0.27,0.368-0.403l0.125,0.119c-0.188,0.206-0.145,0.42-0.101,0.664l0.368,2.105L0.623-8.265z"/>
		<path d="M6.023-15.555L5.13-16.7c-0.289-0.367-0.491-0.215-0.772-0.003l-0.106-0.135c0.283-0.212,0.533-0.399,0.784-0.596
			c0.225-0.18,0.448-0.372,0.684-0.556l0.107,0.137c-0.274,0.224-0.47,0.385-0.183,0.752l2.06,2.634
			c0.286,0.367,0.491,0.216,0.772,0.004l0.107,0.135c-0.24,0.18-0.481,0.359-0.716,0.543c-0.246,0.192-0.481,0.389-0.753,0.605
			l-0.107-0.137c0.274-0.219,0.468-0.382,0.183-0.748l-0.999-1.276l-2.117,1.657l0.997,1.276c0.287,0.366,0.492,0.213,0.775,0.002
			l0.107,0.137c-0.251,0.198-0.487,0.361-0.717,0.543c-0.251,0.197-0.493,0.393-0.752,0.604l-0.106-0.137
			c0.273-0.222,0.468-0.383,0.182-0.752L2.5-14.639c-0.288-0.368-0.493-0.218-0.774-0.003l-0.106-0.139
			c0.251-0.187,0.497-0.371,0.734-0.554c0.241-0.188,0.477-0.382,0.734-0.593l0.107,0.137c-0.274,0.222-0.468,0.38-0.183,0.751
			l0.896,1.14L6.023-15.555z"/>
		<path d="M10.955-16.612c0.249,0.394,0.467,0.263,0.768,0.082l0.095,0.146c-0.284,0.173-0.549,0.33-0.809,0.492
			c-0.254,0.161-0.509,0.329-0.772,0.502l-0.091-0.146c0.294-0.194,0.505-0.336,0.257-0.73L9.545-17.63l-2.203-0.883
			c-0.31-0.126-0.329-0.095-0.684,0.086l-0.092-0.149c0.112-0.06,0.532-0.317,0.792-0.48c0.232-0.147,0.45-0.299,0.68-0.447
			l0.092,0.147c-0.091,0.057-0.316,0.199-0.242,0.317c0.044,0.068,0.205,0.147,0.41,0.232l1.488,0.615l0.103-1.476
			c0.008-0.136,0.048-0.414-0.034-0.543c-0.104-0.164-0.217-0.093-0.504,0.088l-0.09-0.15c0.218-0.126,0.442-0.261,0.658-0.395
			c0.152-0.099,0.295-0.204,0.452-0.303l0.094,0.147c-0.232,0.155-0.245,0.376-0.263,0.622l-0.161,2.133L10.955-16.612z"/>
		<path d="M11.33-21.493c0.269-0.125,0.538-0.262,0.802-0.4c0.203-0.104,0.403-0.223,0.653-0.351
			c0.61-0.313,1.618-0.514,2.097,0.408c0.361,0.698-0.04,1.521-0.662,1.843c-0.118,0.063-0.215,0.104-0.304,0.15l-0.101-0.193
			c0.083-0.029,0.153-0.066,0.231-0.107c0.507-0.263,0.471-0.88,0.251-1.307c-0.424-0.823-1.119-0.758-1.511-0.558
			c-0.088,0.048-0.189,0.107-0.25,0.153l1.727,3.345c0.217,0.413,0.443,0.303,0.766,0.144l0.077,0.156
			c-0.289,0.15-0.552,0.268-0.81,0.404c-0.286,0.147-0.56,0.293-0.851,0.456l-0.08-0.155c0.31-0.168,0.531-0.291,0.318-0.708
			l-1.457-2.816c-0.236-0.455-0.375-0.54-0.819-0.31L11.33-21.493z"/>
		<path d="M17.252-22.037l0.811-0.343c0.498-0.208,0.336-0.593,0.293-0.745l0.119-0.046c0.044,0.138,0.17,0.476,0.264,0.698
			c0.084,0.197,0.236,0.473,0.317,0.671l-0.12,0.051c-0.249-0.591-0.444-0.506-0.921-0.31l-0.658,0.278l0.441,1.046
			c0.284,0.684,0.382,0.845,0.991,0.589l0.38-0.161c0.592-0.283,0.829-0.476,0.791-1.238l0.161-0.038
			c0.03,0.349,0.067,0.703,0.135,1.052c-0.616,0.257-1.234,0.5-1.848,0.76c-0.454,0.193-0.909,0.382-1.357,0.587l-0.067-0.162
			c0.536-0.226,0.542-0.343,0.292-0.941l-1.147-2.733c-0.211-0.505-0.32-0.487-0.816-0.302l-0.067-0.158
			c0.418-0.163,0.835-0.337,1.246-0.507c0.59-0.25,1.173-0.494,1.769-0.76l0.386,0.916l-0.108,0.082
			c-0.335-0.537-0.685-0.593-1.3-0.336l-0.721,0.305L17.252-22.037z"/>
		<path d="M23.047-22.674l0.148-0.042c0.245,0.446,0.741,0.815,1.276,0.659c0.495-0.143,0.779-0.599,0.633-1.107
			c-0.344-1.193-2.144-0.292-2.583-1.806c-0.24-0.827,0.226-1.429,1.01-1.655c0.262-0.075,0.542-0.095,0.81-0.131l0.341,0.795
			l-0.146,0.041c-0.202-0.431-0.574-0.607-1.036-0.474c-0.486,0.143-0.667,0.578-0.531,1.042c0.345,1.195,2.226,0.296,2.654,1.772
			c0.241,0.834-0.375,1.52-1.133,1.739c-0.334,0.096-0.7,0.122-1.042,0.067L23.047-22.674z"/>
		<path d="M29.95-27.132l-0.176,0.037c-0.092-0.346-0.124-0.586-0.646-0.479l-0.992,0.207l0.767,3.65
			c0.095,0.458,0.344,0.412,0.692,0.345l0.039,0.168c-0.316,0.063-0.599,0.111-0.886,0.173c-0.313,0.063-0.62,0.134-0.945,0.211
			l-0.038-0.169c0.344-0.081,0.593-0.137,0.496-0.596l-0.764-3.646l-0.854,0.18c-0.587,0.123-0.58,0.288-0.6,0.74l-0.171,0.033
			l-0.144-1.053l0.13-0.025c0.107,0.162,0.286,0.13,0.45,0.096l2.963-0.623c0.234-0.05,0.385-0.143,0.385-0.269l0.137-0.031
			L29.95-27.132z"/>
		<path d="M35.374-28.488c-0.529,0.06-0.494,0.317-0.404,1.125l0.215,1.907c0.101,0.902-0.386,1.64-1.554,1.77
			c-1.091,0.122-1.806-0.334-1.952-1.457l-0.271-2.418c-0.054-0.464-0.306-0.439-0.657-0.408l-0.02-0.173
			c0.312-0.03,0.617-0.057,0.915-0.09c0.306-0.033,0.61-0.075,0.94-0.12l0.02,0.175c-0.351,0.043-0.603,0.08-0.55,0.543l0.252,2.251
			c0.089,0.787,0.433,1.521,1.463,1.401c1.1-0.122,1.113-0.978,1.062-1.437l-0.213-1.886c-0.122-1.09-0.161-1.064-0.751-1.017
			l-0.019-0.172c0.278-0.027,0.558-0.05,0.835-0.08c0.224-0.029,0.439-0.063,0.667-0.092L35.374-28.488z"/>
		<path d="M36.966-27.991c-0.009-0.599-0.321-0.554-0.622-0.557l-0.002-0.173c0.257,0.009,0.527,0.006,0.786,0.001
			c0.279-0.003,0.659-0.021,1.151-0.03c1.723-0.025,2.679,1.115,2.697,2.292c0.008,0.659-0.354,2.322-2.708,2.355
			c-0.342,0.006-0.653-0.005-0.968,0.001c-0.299,0.005-0.593,0.016-0.893,0.027l-0.001-0.175c0.399-0.043,0.591-0.061,0.605-0.511
			L36.966-27.991z M37.663-24.88c0.006,0.515,0.375,0.568,0.7,0.564c1.438-0.02,1.895-1.11,1.88-2.104
			c-0.02-1.245-0.829-2.132-2.116-2.113c-0.272,0.004-0.399,0.025-0.521,0.033L37.663-24.88z"/>
		<path d="M42.812-28.012c0.032-0.462-0.221-0.486-0.573-0.516l0.012-0.175c0.311,0.027,0.613,0.058,0.914,0.076
			c0.303,0.019,0.611,0.036,0.946,0.048l-0.01,0.173c-0.353-0.017-0.607-0.025-0.638,0.439l-0.219,3.339
			c-0.03,0.467,0.219,0.488,0.578,0.519l-0.02,0.174c-0.317-0.019-0.601-0.052-0.894-0.074c-0.322-0.022-0.637-0.033-0.966-0.049
			l0.012-0.173c0.354,0.016,0.605,0.025,0.636-0.44L42.812-28.012z"/>
		<path d="M47.705-28.277c1.322,0.189,2.195,1.459,2.016,2.714c-0.171,1.208-1.275,2.299-2.725,2.091
			c-1.319-0.188-2.195-1.462-2.016-2.714C45.153-27.395,46.258-28.486,47.705-28.277z M47.108-23.673
			c0.964,0.142,1.689-0.605,1.86-1.8c0.144-1.006-0.244-2.444-1.373-2.605c-0.966-0.135-1.692,0.609-1.863,1.807
			C45.592-25.269,45.979-23.832,47.108-23.673z"/>
		<path d="M58.207-21.391c-0.165,0.436,0.07,0.533,0.396,0.663l-0.06,0.159c-0.308-0.124-0.594-0.238-0.881-0.345
			c-0.28-0.107-0.567-0.211-0.888-0.325l0.062-0.161c0.54,0.207,0.629,0.125,0.858-0.479l1.049-2.766
			c0.197-0.511,0.105-0.574-0.379-0.781l0.062-0.159c0.44,0.168,0.894,0.352,1.348,0.524c0.563,0.217,1.137,0.434,1.694,0.63
			l-0.296,0.892l-0.151-0.028c0.141-0.553-0.058-0.826-0.736-1.084l-0.733-0.278L58.88-23.16l0.733,0.28
			c0.513,0.194,0.586,0.137,0.833-0.277l0.146,0.051c-0.056,0.112-0.199,0.448-0.281,0.671c-0.078,0.198-0.174,0.499-0.229,0.671
			l-0.127-0.048c0.092-0.459,0.136-0.596-0.411-0.804l-0.762-0.29L58.207-21.391z"/>
		<path d="M64.039-19.617c-0.027,0.277-0.104,0.864-0.072,1.042c0.035,0.162,0.198,0.292,0.392,0.38l-0.073,0.158
			c-0.232-0.109-0.461-0.229-0.688-0.338c-0.297-0.142-0.591-0.269-0.888-0.402l0.073-0.158l0.108,0.053
			c0.15,0.07,0.344,0.125,0.423-0.043c0.03-0.067,0.063-0.26,0.077-0.393l0.104-1.017l-1.416-0.665l-0.329,0.359
			c-0.201,0.218-0.411,0.455-0.504,0.643c-0.132,0.283,0.075,0.366,0.278,0.476l0.141,0.064L61.593-19.3
			c-0.234-0.111-0.471-0.236-0.705-0.346c-0.241-0.116-0.494-0.224-0.738-0.331l0.074-0.157c0.387,0.133,0.476,0.113,0.788-0.153
			c0.196-0.173,0.379-0.374,0.563-0.56l1.784-1.792c0.114-0.116,0.297-0.301,0.381-0.482c0.028-0.06,0.051-0.109,0.062-0.163
			c0.153-0.001,0.324-0.001,0.473-0.101l0.102,0.045L64.039-19.617z M62.283-21.208l1.24,0.584l0.188-2.075l-0.012-0.01
			L62.283-21.208z"/>
		<path d="M64.932-17.858c0.276,0.185,0.559,0.25,0.749-0.081l1.702-2.921c0.235-0.405,0.021-0.537-0.278-0.722l0.084-0.152
			c0.159,0.095,0.318,0.2,0.471,0.291l0.18,0.107c0.326,0.191,0.546,0.303,0.755,0.425c0.425,0.251,1.273,0.905,0.799,1.715
			c-0.312,0.535-0.958,0.53-1.461,0.376l-0.006,0.009c0.443,0.229,1.141,1.02,0.666,1.834c-0.362,0.617-1.16,0.773-2.182,0.181
			c-0.271-0.16-0.536-0.329-0.808-0.486c-0.254-0.147-0.509-0.289-0.762-0.427L64.932-17.858z M66.316-17.732
			c-0.15,0.26-0.276,0.473,0.243,0.774c0.686,0.402,1.183,0.065,1.391-0.294c0.481-0.821,0.074-1.307-0.497-1.637l-0.343-0.201
			L66.316-17.732z M67.215-19.274l0.221,0.126c0.465,0.274,0.962,0.361,1.385-0.366c0.388-0.661,0.053-0.987-0.408-1.258
			c-0.077-0.041-0.158-0.083-0.247-0.128L67.215-19.274z"/>
		<path d="M70.896-16.565l-0.891,1.261c-0.268,0.381-0.067,0.53,0.221,0.739l-0.1,0.145c-0.263-0.187-0.489-0.362-0.729-0.53
			c-0.259-0.182-0.52-0.36-0.797-0.546l0.101-0.143c0.259,0.208,0.535,0.297,0.756-0.014l1.942-2.758
			c0.268-0.381,0.066-0.533-0.221-0.741l0.1-0.14c0.298,0.217,0.553,0.408,0.821,0.592c0.19,0.138,0.387,0.261,0.737,0.504
			c1.028,0.725,0.849,1.463,0.578,1.849c-0.325,0.465-0.917,0.562-1.432,0.387c-0.014,1.072-0.059,1.69-0.012,2.118
			c0.039,0.319,0.098,0.58,0.374,0.777l-0.098,0.139c-0.138-0.095-0.267-0.203-0.402-0.297c-0.149-0.107-0.313-0.215-0.469-0.316
			c-0.112-0.893-0.027-1.787,0.018-2.678L70.896-16.565z M72.51-18.163c-0.137-0.098-0.238-0.146-0.348-0.198l-1.126,1.593
			c0.07,0.075,0.177,0.167,0.271,0.23c0.67,0.471,1.241,0.214,1.519-0.174C73.159-17.185,73.153-17.711,72.51-18.163z"/>
		<path d="M75.722-15.201c0.3-0.36,0.108-0.527-0.161-0.754l0.12-0.142c0.237,0.206,0.47,0.407,0.702,0.597
			c0.235,0.194,0.477,0.386,0.732,0.596l-0.108,0.133c-0.279-0.22-0.479-0.375-0.776-0.014l-2.125,2.589
			c-0.301,0.359-0.106,0.527,0.161,0.755l-0.108,0.137c-0.25-0.205-0.462-0.397-0.69-0.583c-0.247-0.205-0.495-0.399-0.756-0.605
			l0.108-0.132c0.279,0.218,0.479,0.375,0.776,0.013L75.722-15.201z"/>
		<path d="M80.225-10.379l-0.12-0.117c0.443-0.651,0.258-1.258-0.283-1.772c-0.552-0.526-1.715-0.921-2.812,0.237
			c-0.925,0.972-0.901,2.333-0.157,3.038c0.476,0.456,1.185,0.506,1.764,0.092l0.084,0.132L77.916-8.17
			c-0.321-0.068-0.989-0.459-1.308-0.76c-1.129-1.073-1.15-2.479-0.117-3.567c0.94-0.985,2.497-0.854,3.446,0.043
			c0.391,0.369,0.646,0.855,0.893,1.338L80.225-10.379z"/>
		<path d="M81.6-5.652c-0.135,0.239-0.44,0.748-0.481,0.927c-0.032,0.158,0.062,0.341,0.2,0.5l-0.126,0.116
			c-0.168-0.19-0.33-0.394-0.497-0.586c-0.215-0.244-0.429-0.481-0.647-0.722l0.13-0.113l0.079,0.09
			c0.109,0.125,0.265,0.256,0.407,0.131c0.057-0.05,0.16-0.21,0.222-0.327l0.509-0.89l-1.028-1.175l-0.447,0.194
			c-0.268,0.119-0.561,0.251-0.715,0.387c-0.237,0.204-0.078,0.362,0.062,0.546l0.099,0.116l-0.133,0.114
			c-0.169-0.194-0.335-0.405-0.505-0.601c-0.173-0.199-0.357-0.402-0.536-0.597l0.129-0.111c0.303,0.273,0.391,0.292,0.781,0.172
			c0.25-0.08,0.497-0.188,0.738-0.285l2.35-0.923c0.154-0.061,0.393-0.156,0.544-0.288c0.049-0.043,0.089-0.079,0.12-0.125
			c0.145,0.062,0.298,0.129,0.473,0.1l0.076,0.084L81.6-5.652z M80.633-7.815l0.901,1.034l1.009-1.825l-0.014-0.007L80.633-7.815z"
			/>
		<path d="M84.157,0.13L84.068,0l1.11-5.047l-2.029,1.435c-0.75,0.528-0.859,0.697-0.443,1.282l-0.142,0.102
			c-0.167-0.24-0.332-0.493-0.503-0.731c-0.167-0.239-0.344-0.479-0.521-0.716l0.141-0.1c0.236,0.331,0.413,0.58,1.103,0.094
			l2.184-1.545c0.469-0.33,0.495-0.65,0.164-1.119l0.137-0.096c0.113,0.173,0.222,0.34,0.341,0.507
			c0.106,0.149,0.223,0.289,0.335,0.434c-0.177,0.458-0.314,1.313-0.562,2.417C85.2-2.26,85.024-1.368,84.884-0.711l2.163-1.531
			c0.499-0.352,0.572-0.573,0.191-1.123l0.137-0.098c0.171,0.254,0.346,0.515,0.524,0.765c0.152,0.211,0.307,0.411,0.465,0.619
			l-0.143,0.101c-0.234-0.331-0.392-0.49-0.922-0.115L84.157,0.13z"/>
		<path d="M90.171,2.827l-0.09-0.155c0.303-0.195,0.522-0.295,0.259-0.76l-0.498-0.881l-3.244,1.833
			c-0.404,0.23-0.286,0.452-0.118,0.764l-0.151,0.086c-0.157-0.278-0.286-0.533-0.431-0.79c-0.158-0.28-0.321-0.55-0.488-0.835
			l0.15-0.083c0.182,0.301,0.312,0.519,0.717,0.289l3.245-1.836l-0.432-0.76c-0.295-0.521-0.453-0.464-0.885-0.348l-0.086-0.151
			l0.959-0.459l0.064,0.116c-0.121,0.152-0.035,0.313,0.044,0.458l1.491,2.635c0.116,0.208,0.252,0.323,0.379,0.283l0.066,0.124
			L90.171,2.827z"/>
		<path d="M92.022,6.419c0.556-0.222,0.403-0.497,0.297-0.777l0.168-0.069c0.085,0.247,0.183,0.495,0.279,0.737
			c0.106,0.26,0.259,0.607,0.436,1.07c0.64,1.605-0.086,2.906-1.18,3.342c-0.617,0.246-2.301,0.5-3.177-1.694
			c-0.123-0.314-0.225-0.613-0.344-0.904c-0.112-0.279-0.227-0.548-0.345-0.827l0.16-0.062c0.183,0.356,0.272,0.531,0.697,0.379
			L92.022,6.419z M89.356,8.185c-0.476,0.191-0.397,0.552-0.273,0.858c0.532,1.338,1.717,1.374,2.644,1.005
			c1.158-0.461,1.698-1.54,1.219-2.733c-0.1-0.256-0.167-0.366-0.215-0.474L89.356,8.185z"/>
		<path d="M93.072,11.754c0.191,0.26,0.467,0.521,0.819,0.412c0.253-0.084,0.215-0.247,0.165-0.408
			c-0.053-0.163-0.067-0.335,0.225-0.429c0.232-0.074,0.386,0.073,0.454,0.281c0.127,0.396-0.153,0.703-0.51,0.815
			c-0.539,0.175-0.992-0.125-1.286-0.564L93.072,11.754z"/>
		<path d="M93.578,15.192l0.211,0.852c0.133,0.527,0.541,0.425,0.694,0.405l0.035,0.127c-0.145,0.024-0.5,0.098-0.731,0.155
			c-0.209,0.052-0.507,0.161-0.715,0.21l-0.032-0.129c0.62-0.157,0.57-0.363,0.444-0.864l-0.171-0.69l-1.101,0.272
			c-0.719,0.179-0.891,0.251-0.731,0.891l0.1,0.402c0.19,0.627,0.346,0.889,1.098,0.972l0.012,0.161
			c-0.348-0.023-0.703-0.037-1.054-0.019c-0.161-0.647-0.309-1.299-0.47-1.943c-0.116-0.48-0.237-0.96-0.369-1.436l0.168-0.042
			c0.141,0.564,0.258,0.588,0.88,0.43l2.877-0.715c0.53-0.132,0.534-0.243,0.423-0.757l0.172-0.043
			c0.094,0.435,0.205,0.879,0.312,1.311c0.157,0.622,0.309,1.235,0.473,1.863l-0.964,0.241l-0.064-0.122
			c0.582-0.249,0.693-0.584,0.531-1.229l-0.19-0.76L93.578,15.192z M95.876,14.604l1.079,0.653c0.12,0.074,0.276,0.147,0.311,0.285
			c0.031,0.119-0.058,0.237-0.143,0.257c-0.109,0.028-0.188,0-0.244-0.052l-0.944-0.916L95.876,14.604z"/>
		<path d="M92.405,22.27c-0.08-0.56-0.17-1.112-0.262-1.668c-0.097-0.586-0.194-1.16-0.303-1.737l0.17-0.03
			c0.036,0.332,0.165,0.587,0.538,0.524l3.327-0.549c0.462-0.076,0.427-0.329,0.377-0.675l0.172-0.03
			c0.044,0.309,0.089,0.615,0.14,0.909c0.049,0.303,0.104,0.603,0.159,0.931l-0.168,0.027c-0.062-0.346-0.112-0.593-0.572-0.52
			l-3.04,0.501c-0.483,0.082-0.67,0.22-0.516,1.153c0.124,0.761,0.352,0.995,1.023,1.092l-0.003,0.149L92.405,22.27z"/>
		<path d="M95.159,24.241l0.07,0.873c0.047,0.537,0.465,0.501,0.617,0.511l0.012,0.131c-0.146-0.002-0.505,0.015-0.744,0.033
			c-0.211,0.019-0.52,0.08-0.733,0.087l-0.013-0.131c0.636-0.054,0.62-0.267,0.576-0.777l-0.059-0.709l-1.124,0.094
			c-0.735,0.06-0.92,0.104-0.864,0.758l0.033,0.411c0.088,0.647,0.197,0.929,0.923,1.13l-0.012,0.161
			c-0.337-0.077-0.685-0.148-1.034-0.187c-0.056-0.662-0.097-1.325-0.154-1.992c-0.039-0.49-0.08-0.979-0.132-1.465l0.169-0.019
			c0.05,0.58,0.158,0.624,0.802,0.567l2.943-0.242c0.543-0.044,0.558-0.154,0.537-0.678l0.173-0.019
			c0.024,0.448,0.062,0.899,0.098,1.343c0.052,0.635,0.104,1.265,0.17,1.907l-0.987,0.083l-0.044-0.131
			c0.615-0.15,0.775-0.465,0.72-1.128l-0.064-0.776L95.159,24.241z M97.517,24.033l0.956,0.814c0.104,0.089,0.246,0.187,0.261,0.334
			c0.008,0.118-0.097,0.22-0.183,0.226c-0.114,0.009-0.188-0.03-0.234-0.095l-0.782-1.047L97.517,24.033z"/>
		<path d="M93.733,30.595c1.229,0.631,2.438,1.307,3.694,1.887c-0.012,0.181-0.023,0.367-0.025,0.547
			c-0.004,0.194,0.002,0.394-0.01,0.59l-0.173-0.004c0.006-0.226-0.006-0.38-0.068-0.466c-0.064-0.09-0.179-0.135-0.396-0.139
			c-1.053-0.024-2.172,0.004-3.177,0.007c-0.5,0-0.647,0.042-0.665,0.708l-0.17-0.006c0.009-0.366,0.03-0.727,0.038-1.094
			c0.012-0.327,0.012-0.647,0.012-0.974l0.174,0.005c-0.006,0.232-0.01,0.398,0.05,0.516c0.062,0.12,0.186,0.174,0.446,0.183
			l3.175,0.033v-0.013l-3.222-1.655c-0.158-0.074-0.479-0.217-0.65-0.275V30.31c1.286-0.534,2.547-1.141,3.821-1.742v-0.014
			l-2.409-0.114c-0.088-0.001-0.326-0.014-0.416-0.018c-0.327-0.006-0.51,0.021-0.605,0.126c-0.093,0.104-0.116,0.271-0.126,0.536
			l-0.173-0.005c0.006-0.274,0.027-0.554,0.034-0.824c0.009-0.294,0.009-0.592,0.009-0.888l0.174,0.008
			c-0.013,0.47,0.092,0.766,0.982,0.815c0.914,0.049,1.817,0.119,2.728,0.143c0.232,0.002,0.379-0.024,0.462-0.118
			c0.082-0.089,0.111-0.236,0.117-0.455h0.183c-0.012,0.235-0.023,0.473-0.032,0.706c-0.003,0.139,0.01,0.285-0.003,0.427
			L93.733,30.595z"/>
		<path d="M94.977,36.002l-0.114,0.874c-0.073,0.535,0.346,0.595,0.493,0.636l-0.011,0.126c-0.145-0.03-0.501-0.093-0.738-0.122
			c-0.214-0.032-0.528-0.036-0.741-0.07l0.02-0.135c0.635,0.088,0.66-0.126,0.729-0.636l0.093-0.706l-1.123-0.151
			c-0.734-0.095-0.925-0.093-1.011,0.559l-0.056,0.41c-0.051,0.653-0.003,0.955,0.671,1.307l-0.048,0.156
			c-0.317-0.151-0.642-0.294-0.979-0.407c0.088-0.661,0.19-1.319,0.28-1.981c0.065-0.49,0.126-0.981,0.179-1.47l0.173,0.024
			c-0.076,0.574,0.025,0.641,0.664,0.724l2.937,0.391c0.541,0.072,0.582-0.032,0.67-0.549l0.18,0.018
			c-0.072,0.444-0.135,0.894-0.193,1.339c-0.082,0.634-0.165,1.263-0.245,1.908l-0.984-0.132l-0.015-0.137
			c0.635-0.018,0.857-0.287,0.946-0.951l0.102-0.773L94.977,36.002z"/>
		<path d="M90.952,43.188l0.036-0.147l4.527-2.543l-2.432-0.562c-0.896-0.206-1.097-0.176-1.258,0.526l-0.17-0.038
			c0.066-0.285,0.146-0.577,0.214-0.864c0.067-0.285,0.127-0.578,0.188-0.866l0.167,0.037c-0.091,0.398-0.16,0.697,0.664,0.891
			l2.619,0.605c0.559,0.128,0.816-0.068,0.946-0.626l0.161,0.042c-0.052,0.2-0.104,0.393-0.153,0.596
			c-0.037,0.173-0.068,0.36-0.1,0.533c-0.46,0.173-1.193,0.645-2.183,1.194c-0.74,0.411-1.531,0.876-2.111,1.207l2.594,0.603
			c0.596,0.136,0.811,0.041,0.969-0.607l0.158,0.04c-0.072,0.298-0.152,0.601-0.219,0.904c-0.062,0.252-0.103,0.505-0.156,0.755
			l-0.168-0.038c0.093-0.4,0.108-0.622-0.531-0.768L90.952,43.188z"/>
		<path d="M92.955,49.44l0.056-0.172c0.35,0.093,0.57,0.19,0.74-0.314l0.323-0.959l-3.524-1.194
			c-0.443-0.152-0.533,0.089-0.65,0.418l-0.164-0.053c0.102-0.303,0.209-0.57,0.301-0.849c0.102-0.303,0.196-0.601,0.298-0.915
			l0.161,0.052c-0.105,0.336-0.179,0.577,0.26,0.729l3.53,1.194l0.28-0.829c0.194-0.567,0.044-0.644-0.333-0.892l0.055-0.165
			l0.982,0.41l-0.042,0.126c-0.196,0.013-0.258,0.182-0.311,0.339l-0.972,2.865c-0.076,0.225-0.074,0.405,0.038,0.47l-0.044,0.131
			L92.955,49.44z"/>
		<path d="M90.098,49.356l-0.062,0.139c-0.499-0.094-1.093,0.06-1.312,0.569c-0.196,0.47-0.025,0.975,0.458,1.185
			c1.14,0.481,1.574-1.473,3.018-0.855c0.787,0.339,0.959,1.072,0.642,1.818c-0.104,0.251-0.269,0.479-0.41,0.708l-0.823-0.23
			l0.062-0.146c0.455,0.116,0.826-0.058,1.015-0.498c0.196-0.468-0.025-0.88-0.471-1.068c-1.141-0.484-1.631,1.533-3.036,0.935
			c-0.794-0.341-0.938-1.244-0.629-1.967c0.136-0.322,0.348-0.62,0.605-0.849L90.098,49.356z"/>
		<path d="M87.432,59.807l0.076-0.126c0.752,0.241,1.344-0.164,1.723-0.809c0.596-1.02,0.042-2.131-0.896-2.677
			c-0.999-0.581-2.351-0.553-2.953,0.484c-0.269,0.455-0.245,0.789-0.232,0.91l0.86,0.503c0.421,0.243,0.551,0.026,0.729-0.281
			l0.141,0.089c-0.165,0.267-0.325,0.531-0.476,0.791c-0.156,0.262-0.307,0.531-0.391,0.706l-0.15-0.089
			c0.111-0.188,0.238-0.41-0.183-0.653l-0.756-0.44l-0.135,0.035l-0.1-0.057c0.105-0.562,0.253-1.188,0.543-1.69
			c0.944-1.618,2.561-1.471,3.387-0.991c1.208,0.705,1.552,2.164,0.852,3.368c-0.299,0.513-0.719,0.927-1.175,1.299L87.432,59.807z"
			/>
		<path d="M84.918,61.235l-1.255-0.911c-0.379-0.274-0.533-0.076-0.742,0.212l-0.145-0.104c0.188-0.258,0.367-0.479,0.539-0.72
			c0.188-0.26,0.368-0.518,0.559-0.794l0.14,0.103c-0.21,0.262-0.301,0.531,0.006,0.758l2.74,1.983
			c0.38,0.274,0.534,0.074,0.747-0.21l0.139,0.098c-0.22,0.296-0.414,0.554-0.607,0.815c-0.136,0.188-0.265,0.389-0.512,0.731
			c-0.74,1.023-1.479,0.835-1.861,0.556c-0.457-0.336-0.549-0.922-0.369-1.439c-1.072-0.026-1.693-0.079-2.123-0.036
			c-0.316,0.031-0.581,0.091-0.781,0.365l-0.148-0.101c0.101-0.136,0.21-0.262,0.306-0.396c0.112-0.155,0.219-0.312,0.326-0.472
			c0.897-0.101,1.793-0.005,2.687,0.05L84.918,61.235z M86.5,62.872c0.098-0.133,0.147-0.238,0.2-0.345l-1.582-1.147
			c-0.076,0.067-0.17,0.172-0.234,0.268c-0.483,0.665-0.232,1.242,0.156,1.525C85.509,63.512,86.036,63.512,86.5,62.872z"/>
		<path d="M79.499,66.541c-0.259-0.096-0.803-0.341-0.985-0.359c-0.163-0.013-0.332,0.106-0.472,0.267l-0.135-0.114
			c0.17-0.188,0.351-0.377,0.52-0.567c0.22-0.241,0.424-0.486,0.641-0.736l0.132,0.114l-0.08,0.093
			c-0.111,0.124-0.22,0.293-0.081,0.42c0.057,0.047,0.229,0.133,0.354,0.179l0.948,0.393l1.038-1.17l-0.252-0.422
			c-0.152-0.251-0.321-0.524-0.473-0.658c-0.234-0.21-0.373-0.033-0.537,0.131l-0.102,0.112l-0.129-0.112
			c0.172-0.195,0.356-0.386,0.532-0.581c0.176-0.2,0.353-0.41,0.525-0.613l0.132,0.115c-0.233,0.336-0.246,0.426-0.076,0.798
			c0.108,0.241,0.251,0.473,0.377,0.701l1.217,2.222c0.081,0.139,0.21,0.367,0.359,0.503c0.05,0.043,0.089,0.079,0.138,0.103
			c-0.043,0.15-0.088,0.314-0.037,0.483l-0.076,0.086L79.499,66.541z M81.521,65.307l-0.912,1.029l1.942,0.768l0.01-0.007
			L81.521,65.307z"/>
		<path d="M80.636,70.174c-0.225,0.2-0.439,0.405-0.659,0.61c-0.163,0.155-0.323,0.324-0.53,0.522
			c-0.501,0.47-1.412,0.941-2.129,0.186c-0.536-0.572-0.382-1.473,0.126-1.952c0.095-0.096,0.181-0.162,0.253-0.229l0.151,0.157
			c-0.07,0.05-0.132,0.104-0.193,0.164c-0.413,0.394-0.211,0.979,0.121,1.325c0.638,0.675,1.286,0.42,1.601,0.117
			c0.072-0.069,0.158-0.155,0.199-0.215l-2.587-2.736c-0.32-0.339-0.511-0.169-0.775,0.074l-0.118-0.127
			c0.238-0.224,0.456-0.412,0.667-0.612c0.232-0.225,0.453-0.441,0.691-0.672l0.12,0.121c-0.256,0.248-0.433,0.429-0.111,0.768
			l2.181,2.305c0.349,0.37,0.512,0.413,0.876,0.069L80.636,70.174z"/>
		<path d="M73.064,73.972l0.899,1.142c0.292,0.367,0.494,0.217,0.776,0l0.111,0.138c-0.282,0.215-0.529,0.403-0.778,0.599
			c-0.227,0.177-0.447,0.369-0.691,0.558l-0.108-0.136c0.272-0.224,0.471-0.389,0.179-0.753l-2.071-2.627
			c-0.291-0.367-0.493-0.215-0.776,0l-0.1-0.139c0.24-0.184,0.479-0.359,0.714-0.548c0.246-0.195,0.485-0.391,0.743-0.608
			l0.108,0.139c-0.272,0.222-0.469,0.384-0.179,0.753l1.005,1.273l2.113-1.671l-1.005-1.271c-0.288-0.367-0.491-0.217-0.773,0
			l-0.104-0.136c0.253-0.2,0.485-0.37,0.714-0.549c0.25-0.2,0.493-0.398,0.75-0.61l0.105,0.139
			c-0.271,0.222-0.465,0.386-0.176,0.756l2.071,2.622c0.291,0.367,0.493,0.217,0.773,0.002l0.11,0.134
			c-0.249,0.188-0.495,0.374-0.731,0.562c-0.241,0.19-0.475,0.384-0.734,0.596l-0.107-0.138c0.274-0.22,0.469-0.384,0.179-0.749
			l-0.903-1.145L73.064,73.972z"/>
		<path d="M71.657,76.751c0.261,0.391,0.473,0.255,0.772,0.064l0.098,0.146c-0.265,0.164-0.523,0.333-0.773,0.498
			c-0.257,0.172-0.509,0.348-0.782,0.538l-0.094-0.143c0.288-0.202,0.497-0.351,0.234-0.736l-1.866-2.787
			c-0.259-0.389-0.474-0.253-0.771-0.057l-0.096-0.146c0.265-0.184,0.511-0.332,0.755-0.494c0.265-0.181,0.523-0.357,0.797-0.55
			l0.097,0.143c-0.291,0.203-0.496,0.348-0.237,0.739L71.657,76.751z"/>
		<path d="M62.762,76.112c0.042-0.281,0.162-0.506,0.424-0.651c0.661-0.369,1.503,0.246,2.483,0.17
			c1.103-0.489,2.476-0.064,3.084,1.022c0.593,1.065,0.379,2.601-0.896,3.309c-1.165,0.653-2.628,0.174-3.246-0.933
			c-0.489-0.874-0.435-2.063,0.331-2.862c-0.736-0.015-1.456-0.37-1.879-0.131c-0.07,0.038-0.139,0.076-0.19,0.152L62.762,76.112z
			 M65.54,75.947c-0.85,0.477-0.974,1.507-0.385,2.561c0.493,0.882,1.671,1.788,2.664,1.229c0.849-0.472,0.975-1.504,0.39-2.558
			C67.712,76.296,66.533,75.39,65.54,75.947z"/>
		<path d="M60.473,83.199c0.491-0.213,0.379-0.448,0.056-1.194l-0.77-1.765c-0.365-0.834-0.114-1.685,0.961-2.157
			c1.012-0.44,1.831-0.214,2.305,0.818l0.974,2.233c0.186,0.429,0.421,0.334,0.75,0.2l0.067,0.155
			c-0.289,0.123-0.573,0.238-0.849,0.359c-0.279,0.119-0.561,0.25-0.863,0.391l-0.071-0.157c0.323-0.149,0.554-0.257,0.367-0.684
			l-0.91-2.086c-0.317-0.725-0.861-1.325-1.82-0.908c-1.017,0.443-0.77,1.272-0.587,1.692l0.761,1.745
			c0.441,1.003,0.468,0.97,1.023,0.748l0.067,0.157c-0.259,0.107-0.517,0.215-0.775,0.327c-0.206,0.093-0.403,0.192-0.615,0.281
			L60.473,83.199z"/>
		<path d="M57.752,82.088l-0.84,0.276c-0.509,0.172-0.376,0.572-0.346,0.723l-0.13,0.043c-0.032-0.146-0.135-0.489-0.212-0.715
			c-0.068-0.205-0.2-0.491-0.259-0.699l0.127-0.038c0.203,0.604,0.406,0.539,0.894,0.375l0.675-0.227l-0.356-1.075
			c-0.235-0.701-0.322-0.87-0.946-0.663l-0.393,0.134c-0.61,0.24-0.86,0.415-0.882,1.175l-0.157,0.026
			c-0.006-0.351-0.02-0.705-0.068-1.056c0.632-0.21,1.27-0.408,1.902-0.622c0.469-0.155,0.935-0.315,1.398-0.481l0.056,0.162
			c-0.549,0.186-0.567,0.303-0.361,0.915l0.94,2.811c0.177,0.518,0.285,0.508,0.791,0.357l0.054,0.162
			c-0.427,0.131-0.856,0.276-1.284,0.417c-0.606,0.2-1.207,0.408-1.816,0.622l-0.312-0.941l0.115-0.074
			c0.293,0.562,0.638,0.644,1.271,0.432l0.736-0.245L57.752,82.088z"/>
		<path d="M54.157,81.712l-0.148,0.035c-0.231-0.46-0.714-0.839-1.251-0.701c-0.497,0.127-0.797,0.575-0.665,1.085
			c0.306,1.204,2.125,0.36,2.514,1.886c0.212,0.834-0.273,1.418-1.062,1.616c-0.268,0.069-0.542,0.078-0.812,0.103l-0.314-0.799
			l0.149-0.04c0.185,0.436,0.548,0.627,1.017,0.51c0.491-0.124,0.685-0.556,0.563-1.027c-0.305-1.199-2.21-0.367-2.589-1.85
			c-0.213-0.844,0.422-1.507,1.183-1.7c0.34-0.086,0.708-0.095,1.046-0.03L54.157,81.712z"/>
		<path d="M47.204,84.629l-0.872,0.114c-0.531,0.072-0.478,0.486-0.478,0.642l-0.134,0.02c-0.006-0.146-0.039-0.508-0.07-0.744
			c-0.026-0.212-0.102-0.518-0.124-0.729l0.132-0.021c0.088,0.637,0.297,0.608,0.806,0.539l0.707-0.091l-0.147-1.128
			c-0.097-0.729-0.147-0.912-0.804-0.824l-0.406,0.055c-0.644,0.117-0.921,0.238-1.088,0.982l-0.165-0.008
			c0.064-0.343,0.118-0.693,0.14-1.044c0.66-0.088,1.323-0.162,1.983-0.248c0.487-0.068,0.979-0.131,1.467-0.209l0.024,0.169
			c-0.576,0.078-0.614,0.193-0.529,0.832l0.389,2.937c0.067,0.539,0.176,0.551,0.702,0.503l0.023,0.169
			c-0.443,0.051-0.894,0.107-1.337,0.165c-0.636,0.086-1.265,0.167-1.902,0.265l-0.129-0.984l0.126-0.053
			c0.183,0.61,0.506,0.756,1.162,0.67l0.777-0.101L47.204,84.629z"/>
		<path d="M39.923,86.432l0.181-0.01c0.033,0.359,0.025,0.599,0.558,0.574l1.011-0.043l-0.161-3.719
			c-0.023-0.465-0.276-0.462-0.627-0.45l-0.008-0.174c0.32-0.015,0.606-0.015,0.899-0.026c0.319-0.017,0.632-0.033,0.963-0.055
			l0.01,0.169c-0.353,0.023-0.605,0.043-0.585,0.508l0.162,3.719l0.872-0.038c0.599-0.026,0.621-0.193,0.712-0.63l0.173-0.009
			l-0.027,1.061l-0.133,0.007c-0.083-0.176-0.261-0.171-0.427-0.167l-3.019,0.132c-0.241,0.012-0.405,0.081-0.425,0.207
			l-0.137,0.005L39.923,86.432z"/>
		<path d="M36.686,83.664l-0.154-0.013c-0.074-0.505-0.411-1.02-0.961-1.058c-0.51-0.038-0.938,0.286-0.977,0.812
			c-0.093,1.234,1.9,1.018,1.782,2.589c-0.065,0.854-0.709,1.254-1.52,1.194c-0.273-0.024-0.539-0.103-0.804-0.162l-0.042-0.858
			l0.153,0.012c0.04,0.473,0.324,0.768,0.802,0.802c0.504,0.038,0.825-0.303,0.861-0.787c0.095-1.237-1.976-1.054-1.862-2.579
			c0.065-0.865,0.879-1.29,1.663-1.232c0.343,0.026,0.698,0.134,0.998,0.303L36.686,83.664z"/>
		<path d="M32.033,86.126c-0.063,0.463,0.187,0.503,0.536,0.558l-0.024,0.175c-0.311-0.053-0.611-0.101-0.908-0.141
			c-0.305-0.046-0.605-0.081-0.939-0.119l0.022-0.172c0.351,0.043,0.601,0.071,0.665-0.392l0.461-3.311
			c0.066-0.463-0.185-0.503-0.531-0.558l0.026-0.172c0.314,0.045,0.597,0.098,0.886,0.141c0.318,0.041,0.626,0.079,0.957,0.117
			l-0.023,0.174c-0.349-0.043-0.604-0.074-0.667,0.389L32.033,86.126z"/>
		<path d="M25.861,84.781l0.178,0.036c-0.055,0.355-0.122,0.589,0.399,0.701l0.99,0.205l0.766-3.647
			c0.098-0.46-0.15-0.518-0.497-0.596l0.039-0.17c0.313,0.064,0.59,0.139,0.878,0.198c0.313,0.066,0.622,0.124,0.946,0.186
			l-0.036,0.172c-0.346-0.069-0.596-0.112-0.692,0.344l-0.765,3.645l0.855,0.184c0.586,0.119,0.647-0.036,0.848-0.438l0.168,0.038
			l-0.288,1.022l-0.131-0.028c-0.033-0.193-0.209-0.236-0.373-0.268l-2.963-0.619c-0.236-0.055-0.411-0.029-0.465,0.09l-0.134-0.028
			L25.861,84.781z"/>
		<path d="M24.025,82.984l-0.845-0.253c-0.517-0.152-0.638,0.251-0.703,0.392l-0.123-0.038c0.056-0.139,0.17-0.479,0.241-0.711
			c0.062-0.205,0.119-0.515,0.18-0.72l0.13,0.038c-0.183,0.615,0.022,0.677,0.513,0.827l0.685,0.202l0.323-1.089
			c0.213-0.71,0.242-0.896-0.392-1.085l-0.396-0.119c-0.637-0.154-0.942-0.154-1.397,0.455l-0.146-0.071
			c0.199-0.288,0.393-0.584,0.562-0.9c0.639,0.19,1.27,0.396,1.91,0.586c0.474,0.141,0.945,0.284,1.42,0.41l-0.048,0.169
			c-0.558-0.169-0.638-0.081-0.823,0.541l-0.849,2.84c-0.157,0.521-0.062,0.576,0.438,0.748l-0.052,0.167
			c-0.422-0.144-0.855-0.271-1.285-0.403c-0.611-0.184-1.219-0.364-1.844-0.533l0.283-0.954l0.137,0.005
			c-0.083,0.632,0.151,0.896,0.79,1.087l0.751,0.225L24.025,82.984z"/>
	</g>
</g>
<g>
	<path d="M16.48,81.797c-0.189,0.425,0.039,0.532,0.359,0.687l-0.07,0.155c-0.283-0.134-0.562-0.265-0.835-0.389
		c-0.28-0.121-0.564-0.24-0.87-0.372l0.07-0.157c0.325,0.139,0.562,0.233,0.75-0.192l1.361-3.057
		c0.19-0.424-0.037-0.536-0.356-0.684l0.068-0.157c0.293,0.133,0.549,0.26,0.817,0.376c0.293,0.134,0.583,0.251,0.889,0.379
		l-0.069,0.162c-0.325-0.138-0.56-0.235-0.751,0.191L16.48,81.797z"/>
	<path d="M12.255,75.113l0.134,0.069l1.239,5.039l1.189-2.188c0.439-0.808,0.464-1.011-0.169-1.354l0.083-0.15
		c0.257,0.138,0.513,0.291,0.774,0.437c0.257,0.138,0.523,0.273,0.786,0.409l-0.084,0.153c-0.357-0.193-0.627-0.341-1.032,0.405
		l-1.279,2.353c-0.275,0.508-0.158,0.806,0.347,1.082l-0.082,0.152c-0.18-0.103-0.351-0.207-0.534-0.308
		c-0.158-0.083-0.33-0.159-0.487-0.248c-0.045-0.485-0.301-1.32-0.568-2.419c-0.199-0.825-0.432-1.704-0.596-2.355l-1.271,2.334
		c-0.293,0.541-0.26,0.772,0.324,1.097l-0.084,0.152c-0.268-0.152-0.539-0.305-0.808-0.453c-0.23-0.126-0.459-0.233-0.687-0.357
		l0.083-0.155c0.355,0.196,0.566,0.272,0.879-0.303L12.255,75.113z"/>
	<path d="M5.726,75.418l0.151,0.101c-0.187,0.308-0.336,0.498,0.106,0.796l0.841,0.567l2.09-3.094
		c0.262-0.389,0.054-0.534-0.235-0.739l0.095-0.146c0.267,0.184,0.497,0.351,0.743,0.515c0.266,0.187,0.527,0.351,0.809,0.534
		l-0.098,0.144c-0.297-0.188-0.511-0.327-0.773,0.06l-2.09,3.094l0.727,0.491c0.498,0.336,0.612,0.215,0.949-0.084l0.145,0.098
		l-0.655,0.84L8.42,78.518c0.039-0.193-0.107-0.299-0.247-0.392l-2.51-1.694c-0.2-0.134-0.372-0.179-0.465-0.089l-0.116-0.081
		L5.726,75.418z"/>
	<path d="M4.727,73.047l-0.685-0.556c-0.418-0.341-0.684-0.012-0.796,0.093l-0.104-0.088c0.104-0.103,0.34-0.377,0.492-0.561
		c0.132-0.164,0.306-0.429,0.444-0.591l0.102,0.086c-0.399,0.495-0.235,0.629,0.161,0.951l0.554,0.452l0.715-0.882
		c0.467-0.572,0.562-0.736,0.05-1.151l-0.32-0.26c-0.528-0.386-0.812-0.505-1.461-0.114l-0.11-0.119
		c0.293-0.19,0.586-0.396,0.855-0.62c0.517,0.42,1.026,0.849,1.542,1.269c0.383,0.312,0.768,0.624,1.159,0.92l-0.11,0.136
		c-0.45-0.364-0.56-0.314-0.966,0.188l-1.863,2.296c-0.343,0.424-0.279,0.515,0.119,0.857L4.397,75.49
		c-0.34-0.294-0.69-0.58-1.039-0.861c-0.497-0.402-0.988-0.798-1.499-1.194l0.626-0.774l0.125,0.058
		c-0.318,0.548-0.202,0.887,0.316,1.304l0.605,0.488L4.727,73.047z"/>
	<path d="M1.485,69.816l1.073-1.115c0.325-0.341,0.147-0.518-0.103-0.766l0.119-0.126c0.23,0.222,0.429,0.432,0.642,0.636
		c0.228,0.218,0.459,0.432,0.704,0.658l-0.119,0.124c-0.228-0.243-0.484-0.372-0.748-0.098l-2.345,2.434
		c-0.324,0.339-0.148,0.518,0.102,0.771l-0.116,0.121c-0.258-0.262-0.485-0.486-0.722-0.715c-0.167-0.157-0.343-0.314-0.658-0.605
		c-0.909-0.877-0.619-1.58-0.289-1.919c0.393-0.408,0.992-0.417,1.474-0.165c0.179-1.061,0.317-1.663,0.335-2.098
		c0.012-0.319-0.006-0.589-0.251-0.822l0.122-0.126c0.119,0.117,0.231,0.24,0.351,0.355c0.132,0.128,0.279,0.26,0.417,0.384
		c-0.028,0.9-0.247,1.773-0.423,2.65L1.485,69.816z M-0.358,71.151c0.122,0.117,0.216,0.179,0.316,0.25l1.357-1.408
		c-0.057-0.086-0.149-0.191-0.231-0.272c-0.591-0.569-1.196-0.397-1.529-0.055C-0.849,70.086-0.923,70.605-0.358,71.151z"/>
	<path d="M-2.647,61.977l0.1,0.114l-0.693,5.135l1.906-1.598c0.706-0.591,0.804-0.768,0.34-1.32l0.132-0.109
		c0.188,0.222,0.372,0.462,0.56,0.687c0.188,0.222,0.387,0.448,0.581,0.672l-0.134,0.109c-0.261-0.31-0.459-0.548-1.108-0.002
		l-2.054,1.724c-0.439,0.369-0.441,0.688-0.072,1.13l-0.134,0.111c-0.129-0.162-0.251-0.321-0.385-0.479
		c-0.116-0.139-0.244-0.271-0.36-0.41c0.138-0.472,0.204-1.337,0.357-2.46c0.118-0.839,0.223-1.743,0.309-2.405l-2.035,1.707
		c-0.47,0.393-0.524,0.617-0.1,1.137l-0.136,0.112c-0.192-0.238-0.388-0.486-0.587-0.72c-0.167-0.201-0.34-0.389-0.504-0.587
		l0.133-0.112c0.262,0.315,0.426,0.46,0.929,0.041L-2.647,61.977z"/>
	<path d="M-6.253,61.423l-0.495-0.727c-0.306-0.443-0.654-0.208-0.79-0.139l-0.076-0.109c0.126-0.069,0.432-0.263,0.63-0.4
		c0.175-0.119,0.414-0.324,0.596-0.441l0.074,0.11c-0.528,0.362-0.408,0.536-0.118,0.965l0.404,0.587l0.935-0.642
		c0.61-0.417,0.749-0.546,0.376-1.089l-0.232-0.339c-0.399-0.524-0.635-0.718-1.371-0.527l-0.068-0.145
		c0.336-0.103,0.673-0.21,0.996-0.354c0.378,0.554,0.742,1.108,1.119,1.657c0.28,0.407,0.558,0.815,0.847,1.218l-0.143,0.093
		c-0.328-0.477-0.444-0.46-0.978-0.093l-2.443,1.669c-0.448,0.308-0.411,0.412-0.13,0.855l-0.145,0.101
		c-0.24-0.375-0.497-0.751-0.748-1.118c-0.362-0.529-0.721-1.049-1.097-1.581l0.822-0.555l0.104,0.09
		c-0.461,0.439-0.446,0.787-0.069,1.338l0.441,0.646L-6.253,61.423z"/>
	<path d="M-11.172,55.757l0.088,0.157c-0.304,0.195-0.522,0.293-0.26,0.758l0.498,0.883l3.244-1.833
		c0.408-0.231,0.288-0.456,0.119-0.766l0.15-0.086c0.159,0.279,0.288,0.534,0.434,0.789c0.157,0.281,0.318,0.548,0.487,0.837
		l-0.153,0.083c-0.181-0.303-0.31-0.52-0.716-0.291l-3.242,1.838l0.429,0.759c0.294,0.524,0.455,0.465,0.886,0.348l0.086,0.152
		l-0.958,0.458l-0.065-0.114c0.119-0.152,0.038-0.312-0.044-0.458l-1.492-2.637c-0.117-0.209-0.251-0.324-0.375-0.283l-0.069-0.124
		L-11.172,55.757z"/>
	<path d="M-10.21,51.583l-0.06-0.143c0.417-0.299,0.721-0.832,0.506-1.345c-0.2-0.473-0.688-0.703-1.173-0.496
		c-1.143,0.479-0.039,2.16-1.492,2.77c-0.793,0.332-1.445-0.06-1.761-0.812c-0.105-0.253-0.157-0.526-0.225-0.786l0.749-0.43
		l0.06,0.141c-0.403,0.246-0.538,0.637-0.351,1.078c0.197,0.472,0.65,0.598,1.1,0.409c1.146-0.479,0.033-2.243,1.451-2.839
		c0.8-0.336,1.55,0.193,1.855,0.923c0.136,0.317,0.2,0.682,0.187,1.029L-10.21,51.583z"/>
	<path d="M-16.217,44.987c0.167,0.505,0.412,0.422,1.187,0.164l1.825-0.589c0.864-0.281,1.686,0.046,2.048,1.166
		c0.342,1.044,0.036,1.84-1.036,2.205l-2.316,0.753c-0.442,0.146-0.372,0.389-0.268,0.725l-0.17,0.058
		c-0.089-0.301-0.179-0.594-0.271-0.88c-0.094-0.293-0.195-0.581-0.3-0.898l0.164-0.053c0.116,0.334,0.199,0.572,0.646,0.427
		l2.156-0.701c0.755-0.245,1.404-0.729,1.083-1.719c-0.341-1.053-1.187-0.894-1.624-0.748l-1.81,0.589
		c-1.041,0.339-1.008,0.367-0.844,0.937l-0.172,0.058c-0.079-0.271-0.159-0.536-0.249-0.804c-0.068-0.214-0.148-0.419-0.215-0.639
		L-16.217,44.987z"/>
	<path d="M-14.539,42.263l1.507-0.341c0.454-0.104,0.405-0.349,0.334-0.695l0.17-0.037c0.07,0.311,0.119,0.595,0.182,0.879
		c0.073,0.312,0.146,0.615,0.223,0.938l-0.167,0.038c-0.054-0.328-0.199-0.578-0.567-0.491l-3.294,0.737
		c-0.455,0.103-0.405,0.353-0.336,0.696l-0.175,0.04c-0.076-0.357-0.139-0.672-0.21-0.989c-0.051-0.229-0.114-0.453-0.2-0.871
		c-0.273-1.228,0.354-1.655,0.814-1.756c0.551-0.124,1.055,0.196,1.318,0.672c0.732-0.786,1.183-1.215,1.432-1.562
		c0.188-0.261,0.319-0.496,0.244-0.828l0.171-0.036c0.035,0.162,0.061,0.328,0.095,0.491c0.04,0.182,0.091,0.367,0.138,0.549
		c-0.518,0.737-1.18,1.341-1.81,1.974L-14.539,42.263z M-16.809,42.36c0.038,0.159,0.081,0.268,0.126,0.381l1.904-0.427
		c-0.001-0.102-0.02-0.239-0.045-0.351c-0.179-0.797-0.775-0.994-1.244-0.888C-16.632,41.202-16.98,41.593-16.809,42.36z"/>
	<path d="M-14.694,32.796c-1.289-0.515-2.557-1.076-3.857-1.541c-0.005-0.181-0.011-0.37-0.024-0.546
		c-0.013-0.194-0.039-0.396-0.057-0.585l0.173-0.012c0.017,0.224,0.039,0.376,0.113,0.46c0.074,0.081,0.188,0.113,0.408,0.097
		c1.051-0.073,2.167-0.21,3.17-0.306c0.498-0.044,0.641-0.102,0.596-0.768L-14,29.582c0.026,0.366,0.038,0.735,0.063,1.097
		c0.021,0.328,0.05,0.646,0.08,0.974l-0.173,0.012c-0.017-0.232-0.028-0.401-0.096-0.507c-0.078-0.117-0.206-0.165-0.465-0.146
		l-3.173,0.269l0.001,0.013l3.37,1.346c0.164,0.063,0.501,0.174,0.679,0.218l0.007,0.129c-1.234,0.657-2.433,1.381-3.647,2.102V35.1
		l2.413-0.111c0.088-0.007,0.329-0.017,0.42-0.023c0.325-0.024,0.504-0.068,0.592-0.181c0.085-0.11,0.093-0.284,0.073-0.545
		l0.173-0.014c0.019,0.275,0.025,0.555,0.045,0.828c0.02,0.291,0.046,0.592,0.074,0.884l-0.173,0.01
		c-0.033-0.476-0.167-0.759-1.06-0.724c-0.915,0.032-1.824,0.05-2.736,0.113c-0.232,0.016-0.376,0.062-0.448,0.157
		c-0.076,0.097-0.092,0.247-0.076,0.469l-0.17,0.012c-0.008-0.236-0.019-0.474-0.036-0.708c-0.008-0.139-0.032-0.287-0.046-0.425
		L-14.694,32.796z"/>
	<path d="M-16.412,27.546l0.036-0.879c0.021-0.537-0.397-0.553-0.55-0.58l0.006-0.133c0.145,0.02,0.504,0.048,0.742,0.056
		c0.214,0.008,0.529-0.012,0.741,0.003l-0.003,0.133c-0.64-0.025-0.646,0.186-0.668,0.7l-0.029,0.713l1.13,0.045
		c0.74,0.028,0.927,0.01,0.954-0.649l0.016-0.412c-0.008-0.654-0.079-0.949-0.784-1.235l0.033-0.161
		c0.33,0.118,0.665,0.231,1.008,0.312c-0.029,0.664-0.064,1.332-0.093,1.997c-0.019,0.494-0.04,0.986-0.048,1.476l-0.173-0.004
		c0.024-0.58-0.08-0.637-0.726-0.662l-2.954-0.119c-0.546-0.021-0.577,0.084-0.617,0.61l-0.174-0.006
		c0.031-0.446,0.049-0.901,0.069-1.346c0.026-0.638,0.05-1.271,0.063-1.915l0.99,0.039l0.027,0.133
		c-0.629,0.075-0.828,0.368-0.854,1.033l-0.033,0.778L-16.412,27.546z"/>
	<path d="M-14.781,24.336l0.018-0.154c0.509-0.054,1.035-0.367,1.101-0.916c0.06-0.509-0.251-0.949-0.773-1.011
		c-1.232-0.142-1.096,1.857-2.657,1.674c-0.853-0.101-1.223-0.76-1.128-1.567c0.031-0.274,0.12-0.535,0.192-0.798l0.859-0.003
		l-0.018,0.15c-0.472,0.019-0.778,0.292-0.833,0.769c-0.061,0.501,0.269,0.833,0.752,0.892c1.228,0.142,1.133-1.932,2.653-1.755
		c0.856,0.102,1.251,0.932,1.159,1.712c-0.043,0.344-0.163,0.69-0.345,0.985L-14.781,24.336z"/>
	<path d="M-16.794,15.658c-0.104,0.524,0.151,0.567,0.949,0.726l1.883,0.374c0.889,0.176,1.443,0.864,1.214,2.013
		c-0.211,1.079-0.865,1.623-1.98,1.421l-2.385-0.475c-0.456-0.092-0.515,0.154-0.588,0.503l-0.168-0.034
		c0.068-0.305,0.132-0.608,0.189-0.899c0.06-0.305,0.113-0.605,0.17-0.93l0.172,0.033c-0.062,0.346-0.105,0.596,0.352,0.689
		l2.221,0.439c0.778,0.156,1.58,0.049,1.782-0.971c0.217-1.084-0.599-1.355-1.05-1.446l-1.861-0.368
		c-1.072-0.211-1.06-0.171-1.195,0.407l-0.167-0.033c0.061-0.272,0.123-0.545,0.176-0.819c0.044-0.224,0.073-0.439,0.118-0.662
		L-16.794,15.658z"/>
	<path d="M-13.974,14.101l1.475,0.448c0.449,0.134,0.529-0.104,0.636-0.439l0.166,0.049c-0.093,0.306-0.188,0.573-0.273,0.854
		c-0.092,0.307-0.175,0.606-0.267,0.927l-0.167-0.05c0.117-0.311,0.113-0.597-0.25-0.706l-3.227-0.973
		c-0.444-0.135-0.523,0.105-0.633,0.439l-0.17-0.048c0.112-0.348,0.211-0.651,0.306-0.963c0.064-0.223,0.123-0.45,0.25-0.858
		c0.362-1.202,1.117-1.267,1.569-1.128c0.542,0.16,0.82,0.689,0.815,1.23c1.021-0.324,1.624-0.476,2.011-0.658
		c0.289-0.137,0.52-0.272,0.621-0.598l0.164,0.05c-0.049,0.158-0.11,0.312-0.157,0.471c-0.054,0.179-0.104,0.365-0.152,0.547
		c-0.811,0.386-1.683,0.588-2.542,0.829L-13.974,14.101z M-15.996,13.076c-0.05,0.158-0.063,0.273-0.08,0.393l1.866,0.564
		c0.05-0.089,0.101-0.218,0.134-0.327c0.235-0.784-0.188-1.244-0.647-1.382C-15.275,12.155-15.771,12.325-15.996,13.076z"/>
	<path d="M-12.603,8.955l0.33-0.814c0.2-0.501-0.187-0.657-0.323-0.732l0.052-0.125c0.13,0.068,0.46,0.216,0.682,0.303
		c0.195,0.081,0.498,0.168,0.692,0.253l-0.05,0.123c-0.592-0.238-0.671-0.04-0.864,0.434l-0.265,0.663l1.048,0.419
		c0.685,0.278,0.87,0.323,1.115-0.289l0.155-0.38c0.212-0.619,0.241-0.923-0.321-1.429l0.083-0.136
		c0.271,0.22,0.546,0.442,0.844,0.633c-0.249,0.617-0.51,1.228-0.759,1.846c-0.185,0.456-0.367,0.916-0.538,1.376l-0.163-0.07
		c0.217-0.538,0.138-0.623-0.46-0.865l-2.74-1.103c-0.505-0.207-0.572-0.116-0.788,0.362l-0.155-0.064
		c0.179-0.411,0.348-0.828,0.514-1.242c0.24-0.592,0.475-1.179,0.7-1.781l0.919,0.368l-0.019,0.138
		c-0.62-0.144-0.903,0.066-1.151,0.685l-0.292,0.721L-12.603,8.955z"/>
</g>
<path fill="#010202" d="M54.606-24.212c-0.118,0.53-0.642,0.862-1.171,0.747c-0.531-0.118-0.861-0.641-0.745-1.171
	c0.117-0.531,0.869-0.913,1.368-1.65C54.235-25.441,54.724-24.744,54.606-24.212z"/>
<path fill="#010202" d="M-8.902,2.166c0.47,0.272,0.629,0.873,0.356,1.344c-0.268,0.466-0.87,0.628-1.34,0.358
	c-0.468-0.272-0.607-1.106-1.159-1.806C-10.184,2.146-9.371,1.895-8.902,2.166z"/>
</svg>
